# xmcd
#
# Track frame offsets:
#	150
#	16062
#	39699
#	57196
#	77658
#	95188
#	116137
#	133221
#	154108
#	170640
#	191442
#	208854
#
# Disc length: 3093 seconds
#
# Revision: 0
# Processed by: cddbd v1.5.1PL2 Copyright (c) Steve Scherf et al.
# Submitted via: dBpowerAMP V4.0
#
DISCID=a80c130c
DTITLE=Rick Tippe - Dance On
DYEAR=1900
DGENRE=Country
TTITLE0=Dance On (Dance Mix)
TTITLE1=Dance On (Extended Dance Mix)
TTITLE2=Hardwood Stomp (Dance Mix)
TTITLE3=Hardwood Stomp (Extended Dance Mix)
TTITLE4=L O V E (Dance Mix)
TTITLE5=L O V E (Extended Dance Mix)
TTITLE6=Triple Threat (Dance Mix)
TTITLE7=Triple Threat (Extended Dance Mix)
TTITLE8=Waitin On A Slow Dance (Dance Mix)
TTITLE9=Waitin' On A Slow Dance (Extended Dance Mix)
TTITLE10=You're Killin Me (Dance Mix)
TTITLE11=You're Killin Me (Extended Dance Mix
EXTD=
EXTT0=
EXTT1=
EXTT2=
EXTT3=
EXTT4=
EXTT5=
EXTT6=
EXTT7=
EXTT8=
EXTT9=
EXTT10=
EXTT11=
PLAYORDER=
